<svg id="svg8" height="300" viewBox="0 0 48.119801 54" width="300" xmlns="http://www.w3.org/2000/svg" xmlns:svg="http://www.w3.org/2000/svg" version="1.1" xmlns:xlink="http://www.w3.org/1999/xlink" xmlns:svgjs="http://svgjs.dev/svgjs"><g width="100%" height="100%" transform="matrix(1,0,0,1,0,0)"><g id="layer2" transform="translate(-647.931 -325)"><g id="g71123" transform="translate(640 320)"><path id="path70358" d="m26.091797 33.027344c-1.402475.084048-2.784176.385365-4.091797.90039v8.201172c1.719344.447488 3 2.017447 3 3.871094v3c-.000055.552262-.447738.999945-1 1h-1c-.552285 0-1-.447715-1-1s.447715-1 1-1v-2c0-1.125288-.874712-2-2-2s-2 .874712-2 2v2c.552285 0 1 .447715 1 1s-.447715 1-1 1h-1c-.552262-.000055-.999945-.447738-1-1v-3c0-1.853647 1.280656-3.423606 3-3.871094v-7.310547l-4.369141 1.986329c-1.667965.758166-2.91392 2.215119-3.404297 3.980468l-4.226562 15.214844c-.4448216 1.601355 1.3380102 3 3 3h20v-6.900391c-1.047039-4.98419-2.050924-10.51607-3.074219-15.71289-.941619-.875901-1.603261-2.047389-1.833984-3.359375zm11.816406 0c-.227501 1.293662-.874136 2.450485-1.794922 3.322265l-3.113281 15.744141v6.90625h20c1.661988 0 3.368334-1.379341 3-3l-4.226562-15.214844c-.490377-1.765349-1.736332-3.222302-3.404297-3.980468l-4.369141-1.986329v9.355469c1.160383.415693 2 1.53082 2 2.826172 0 1.644998-1.355002 3-3 3s-3-1.355002-3-3c0-1.295352.839617-2.410479 2-2.826172v-10.246094c-1.307621-.515025-2.689322-.816342-4.091797-.90039zm-4.103515 4.691406c-.57064.182529-1.177107.28125-1.804688.28125-.615454 0-1.210518-.09567-1.771484-.271484.593231 3.022245 1.182418 6.081671 1.773437 9.107422zm9.195312 8.28125c-.564129 0-1 .435871-1 1s.435871 1 1 1 1-.435871 1-1-.435871-1-1-1z" fill="#ffffff" fill-opacity="1" data-original-color="#000000ff" stroke="none" stroke-opacity="1"/><path id="rect61480" d="m26.228516 14.857422c-.60528 1.348786-1.957252 2.310547-3.513672 2.310547v3.533203c0 5.144227 4.140881 9.287109 9.285156 9.287109s9.285156-4.142882 9.285156-9.287109v-3.533203c-1.55642 0-2.908392-.961762-3.513672-2.310547l-.480468.121094c-3.474319.868572-7.107713.868572-10.582032 0z" fill="#ffffff" fill-opacity="1" data-original-color="#000000ff" stroke="none" stroke-opacity="1"/><path id="rect61828" d="m19.216797 16.298828c-.139534.254788-.216797.540732-.216797.841797v1.625c0 .919075.725761 1.687068 1.714844 1.908203v-3.505859c-.546367 0-1.245356-.484791-1.498047-.869141z" fill="#ffffff" fill-opacity="1" data-original-color="#000000ff" stroke="none" stroke-opacity="1"/><path id="path62525" d="m43.142857 15.167765v-5.5249503c0-1.0256624-.831471-1.8571259-1.857143-1.8571259h-.928571v-.9285629c0-1.0256623-.831472-1.8571259-1.857143-1.8571259h-13c-2.564179 0-4.642857 2.078659-4.642857 4.6428147v5.5249503h1.857143c1.025671 0 1.857143-.831464 1.857143-1.857126v-.928563l2.621848.655456c3.155918.788973 6.457528.788973 9.613446 0l2.621849-.655456v.928563c0 1.025662.831471 1.857126 1.857142 1.857126z" fill="#ffffff" fill-opacity="1" data-original-color="#000000ff" stroke="none" stroke-opacity="1"/><path id="path62875" d="m44.783203 16.298828c-.344002.498894-.895634.814933-1.5.859375.0041 1.17055.002 2.344058.002 3.515659.989036-.221169 1.714797-.989162 1.714797-1.908237v-1.625c0-.301065-.07726-.587009-.216797-.841797z" fill="#ffffff" fill-opacity="1" data-original-color="#000000ff" stroke="none" stroke-opacity="1"/><path id="path64269" d="m28 31.251953v.748047c0 2.215996 1.784004 4 4 4s4-1.784004 4-4v-.748047c-1.244227.474104-2.592377.736328-4 .736328s-2.755773-.262224-4-.736328z" fill="#ffffff" fill-opacity="1" data-original-color="#000000ff" stroke="none" stroke-opacity="1"/></g></g></g></svg>