<svg id="Outline" height="300" viewBox="0 0 128 128" width="300" xmlns="http://www.w3.org/2000/svg" version="1.1" xmlns:xlink="http://www.w3.org/1999/xlink" xmlns:svgjs="http://svgjs.dev/svgjs"><g width="100%" height="100%" transform="matrix(1,0,0,1,0,0)"><g><path d="m71.28 72.399h-5.281v-5.283c0-1.104-.896-2-2-2s-2 .896-2 2v5.283h-5.281c-1.104 0-2 .896-2 2s.896 2 2 2h5.281v5.281c0 1.104.896 2 2 2s2-.896 2-2v-5.281h5.281c1.104 0 2-.896 2-2s-.895-2-2-2z" fill="#ffffff" fill-opacity="1" data-original-color="#000000ff" stroke="none" stroke-opacity="1"/><path d="m63.999 57.398c-9.374 0-17 7.626-17 17s7.626 17 17 17 17-7.626 17-17-7.626-17-17-17zm0 30c-7.168 0-13-5.832-13-13s5.832-13 13-13 13 5.832 13 13-5.832 13-13 13z" fill="#ffffff" fill-opacity="1" data-original-color="#000000ff" stroke="none" stroke-opacity="1"/><path d="m90.876 93.625h-4.209v-19.787c0-12.498-10.168-22.666-22.666-22.666-12.499 0-22.668 10.168-22.668 22.666v19.787h-4.207c-1.104 0-2 .896-2 2v8.5c0 1.104.896 2 2 2h53.75c1.104 0 2-.896 2-2v-8.5c0-1.104-.896-2-2-2zm-45.543-19.787c0-10.292 8.374-18.666 18.668-18.666 10.292 0 18.666 8.374 18.666 18.666v19.787h-37.334zm43.543 28.287h-49.75v-4.5h4.207 41.334 4.209z" fill="#ffffff" fill-opacity="1" data-original-color="#000000ff" stroke="none" stroke-opacity="1"/><path d="m64.001 42.375c1.104 0 2-.896 2-2v-16.5c0-1.104-.896-2-2-2s-2 .896-2 2v16.5c0 1.104.895 2 2 2z" fill="#ffffff" fill-opacity="1" data-original-color="#000000ff" stroke="none" stroke-opacity="1"/><path d="m86.452 51.675c.512 0 1.023-.195 1.414-.586l11.666-11.667c.781-.781.781-2.047 0-2.828s-2.047-.781-2.828 0l-11.666 11.667c-.781.781-.781 2.047 0 2.828.391.39.902.586 1.414.586z" fill="#ffffff" fill-opacity="1" data-original-color="#000000ff" stroke="none" stroke-opacity="1"/><path d="m32.251 70.123h-16.5c-1.104 0-2 .896-2 2s.896 2 2 2h16.5c1.104 0 2-.896 2-2s-.896-2-2-2z" fill="#ffffff" fill-opacity="1" data-original-color="#000000ff" stroke="none" stroke-opacity="1"/><path d="m40.138 51.088c.391.391.902.586 1.414.586s1.023-.195 1.414-.586c.781-.781.781-2.047 0-2.828l-11.668-11.668c-.781-.781-2.047-.781-2.828 0s-.781 2.047 0 2.828z" fill="#ffffff" fill-opacity="1" data-original-color="#000000ff" stroke="none" stroke-opacity="1"/><path d="m112.249 70.127h-16.502c-1.104 0-2 .896-2 2s.896 2 2 2h16.502c1.104 0 2-.896 2-2s-.895-2-2-2z" fill="#ffffff" fill-opacity="1" data-original-color="#000000ff" stroke="none" stroke-opacity="1"/></g></g></svg>