<svg id="Layer_1" enable-background="new 0 0 60 60" viewBox="0 0 60 60" xmlns="http://www.w3.org/2000/svg" width="300" height="300" version="1.1" xmlns:xlink="http://www.w3.org/1999/xlink" xmlns:svgjs="http://svgjs.dev/svgjs"><g width="100%" height="100%" transform="matrix(1,0,0,1,0,0)"><path d="m29.9949951 39.7199707c3.6100464 0 6.5400391-2.9299927 6.5400391-6.5299683 0-3.6100464-2.9299927-6.5300293-6.5400391-6.5300293-3.5999756 0-6.5299683 2.9199829-6.5299683 6.5300293.0000001 3.5999756 2.9299927 6.5299683 6.5299683 6.5299683z" fill="#ffffff" fill-opacity="1" data-original-color="#000000ff" stroke="none" stroke-opacity="1"/><path d="m19.125 51.7399902c-.0199585.2700195.0800171.539978.2700195.7399902s.4500122.3099976.7299805.3099976h19.75c.2800293 0 .5400391-.1099854.7300415-.3099976.1799927-.2000122.2799683-.4699707.2699585-.7399902-.2799683-5.8099976-5.0599976-10.3699951-10.8800049-10.3699951-5.8099975 0-10.5899658 4.5599976-10.8699951 10.3699951z" fill="#ffffff" fill-opacity="1" data-original-color="#000000ff" stroke="none" stroke-opacity="1"/><path d="m6.2750244 47.9099731c.1900024.1900024.4500122.3099976.7199707.3099976h10.7600098c1.1500244-3.539978 3.8099976-6.3900146 7.210022-7.8299561-2.0200195-2.2700195-4.9299927-3.6000366-8.0800171-3.6000366-5.8200073 0-10.5999756 4.5599976-10.8800049 10.3800049-.0199585.2700195.0800171.539978.2700195.7399902z" fill="#ffffff" fill-opacity="1" data-original-color="#000000ff" stroke="none" stroke-opacity="1"/><circle cx="43.115" cy="28.61" r="6.53" fill="#ffffff" fill-opacity="1" data-original-color="#000000ff" stroke="none" stroke-opacity="1"/><path d="m16.875 35.1400146c3.6100464 0 6.5400391-2.9300537 6.5400391-6.5300293s-2.9299927-6.5300292-6.5400391-6.5300292c-3.5999756 0-6.5299683 2.9300537-6.5299683 6.5300293s2.9299927 6.5300292 6.5299683 6.5300292z" fill="#ffffff" fill-opacity="1" data-original-color="#000000ff" stroke="none" stroke-opacity="1"/><path d="m52.9949951 48.2199707c.2800293 0 .5400391-.1199951.7300415-.3099976.1900024-.2000122.289978-.4699707.2699585-.7399902-.2799683-5.8200073-5.0599976-10.3800049-10.8799438-10.3800049-3.1500244 0-6.0599976 1.3300171-8.0800171 3.6000366 3.3900146 1.4399414 6.0499878 4.289978 7.2099609 7.8299561z" fill="#ffffff" fill-opacity="1" data-original-color="#000000ff" stroke="none" stroke-opacity="1"/><path d="m26.9250488 17.7399902v3.3800049c0 .5499878.4499512 1 1 1h4.1399536c.5599976 0 1-.4500122 1-1v-3.3800049h3.3900146c.5499878 0 1-.4500122 1-1v-4.1400146c0-.5599976-.4500122-1-1-1h-3.3900146v-3.3900147c0-.5499878-.4400024-1-1-1h-4.1399536c-.5500488 0-1 .4500122-1 1v3.3900146h-3.3800049c-.5500488 0-1 .4400024-1 1v4.1400146c0 .5499878.4499512 1 1 1h3.3800049z" fill="#ffffff" fill-opacity="1" data-original-color="#000000ff" stroke="none" stroke-opacity="1"/></g></svg>